<svg id="Layer_1" data-name="Layer 1" xmlns="http://www.w3.org/2000/svg" viewBox="0 0 119.3 137.76"><defs><style>.cls-1{fill:#231f20;opacity:0.68;}.cls-2{fill:#fff;}</style></defs><polygon class="cls-1" points="8 39.29 8 98.93 59.65 128.75 111.3 98.93 111.3 39.29 59.65 9.47 8 39.29"/><path class="cls-1" d="M59.65,0,0,34.44v68.88l59.65,34.44,59.65-34.44V34.44ZM114.3,100.66,59.65,132.21,5,100.66V37.56L59.65,6,114.3,37.56Z"/><path class="cls-2" d="M44.38,73.73l8,.93h.27a2.24,2.24,0,0,0,2-1.15l.45.85.83,1.56-4.51,6a2.66,2.66,0,0,0-.52,1.25l-1.33,9.41a2.71,2.71,0,0,0,2.31,3.06,2.43,2.43,0,0,0,.38,0,2.71,2.71,0,0,0,2.68-2.33l1.23-8.72,5.48-7.27.19-.29.93-.49.28-.15,9.61,17.82a2.71,2.71,0,0,0,4.78-2.57L67.77,73.89h0l-.84-1.59-5.1-9.65L61,61.07l.79-14.28A2.26,2.26,0,0,0,61,44.92l-8.63-7.08a2.26,2.26,0,1,0-2.87,3.49l7.75,6.36-.48,8.79L48,61.09l0,0a2.31,2.31,0,0,0-1,.95l-4.42,8.35a2.26,2.26,0,0,0,0,2.1A2.29,2.29,0,0,0,44.38,73.73Zm6-8.2L51.66,68l1.14,2.15-4.62-.54ZM47.49,47.82a5.48,5.48,0,1,1-2.28,7.4A5.46,5.46,0,0,1,47.49,47.82Z"/></svg>