<svg id="Layer_1" data-name="Layer 1" xmlns="http://www.w3.org/2000/svg" xmlns:xlink="http://www.w3.org/1999/xlink" viewBox="0 0 119.3 137.76"><defs><style>.cls-1{fill:#222;}.cls-2{fill:none;}.cls-3{opacity:0.27;}.cls-4{clip-path:url(#clip-path);}.cls-5{clip-path:url(#clip-path-2);}.cls-6{opacity:0.26;}.cls-7{fill:#231f20;opacity:0.68;}.cls-8{fill:#fff;}</style><clipPath id="clip-path"><rect class="cls-1" x="173.89" y="119.28" width="1921.55" height="1019.18"/></clipPath><clipPath id="clip-path-2"><rect class="cls-2" x="174.67" y="-928.1" width="1920" height="1018.09"/></clipPath></defs><g class="cls-3"><rect class="cls-1" x="173.89" y="119.28" width="1921.55" height="1019.18"/><g class="cls-4"><image width="10829" height="5239" transform="translate(59.93 65.86) scale(0.21)" xlink:href="../../../Links/shutterstock_1166174734.jpg"/></g></g><g class="cls-5"><image class="cls-6" width="8918" height="3938" transform="translate(-70.11 -993.46) scale(0.28)" xlink:href="../../../Links/shutterstock_1164487231.jpg"/></g><polygon class="cls-7" points="8 39.29 8 98.93 59.65 128.75 111.3 98.93 111.3 39.29 59.65 9.47 8 39.29"/><path class="cls-7" d="M59.65,0,0,34.44v68.88l59.65,34.44,59.65-34.44V34.44ZM114.3,100.66,59.65,132.21,5,100.66V37.56L59.65,6,114.3,37.56Z"/><path class="cls-8" d="M59.84,74c-15.84,0-24.5,2.68-24.5,2.68v1.68c1.16,4.36,24.5,4.36,24.5,4.36s23.34,0,24.51-4.36V76.69S75.69,74,59.84,74Z"/><path class="cls-8" d="M60.74,54.62a.9.9,0,1,0-.9.9A.89.89,0,0,0,60.74,54.62Z"/><path class="cls-8" d="M91.26,63.05,64.45,49.58a10.29,10.29,0,0,0-9.21,0L28.43,63.05a3.36,3.36,0,0,0-1.05,5.18l4.94,5.83A4.34,4.34,0,0,1,34,73.42a68.84,68.84,0,0,1,8-1.18c3.36-.36,7.07-.66,10.24-.88,4.35-.31,7.67-.49,7.67-.49s18.16,1,25,2.36a6.26,6.26,0,0,1,2.49.83l4.94-5.83A3.36,3.36,0,0,0,91.26,63.05Zm-26.48.12-.21-.77a7.07,7.07,0,0,1-9.45,0l-.21.77-1.28-3.09,3.08,1.32-.7.18A7.06,7.06,0,0,0,59.25,63V58.53H57.43v-1.2h1.82v-.7a2.1,2.1,0,1,1,1.19,0v.7h1.91v1.2H60.44V63a7.06,7.06,0,0,0,3.24-1.4L63,61.4l3.08-1.32Z"/></svg>