<svg id="Layer_1" data-name="Layer 1" xmlns="http://www.w3.org/2000/svg" viewBox="0 0 119.3 137.76"><defs><style>.cls-1{fill:#231f20;opacity:0.68;}.cls-2{fill:#fff;}</style></defs><polygon class="cls-1" points="8 39.29 8 98.93 59.65 128.75 111.3 98.93 111.3 39.29 59.65 9.47 8 39.29"/><path class="cls-1" d="M59.65,0,0,34.44v68.88l59.65,34.44,59.65-34.44V34.44ZM114.3,100.66,59.65,132.21,5,100.66V37.56L59.65,6,114.3,37.56Z"/><path class="cls-2" d="M85.44,54s.13-1-.23-1.2a4.58,4.58,0,0,1-2-1.49c-.58-.9-2.44-3.46-4.57-3.6s-2.7-.09-3.09.08a4.53,4.53,0,0,1-1.64.54,34.11,34.11,0,0,1-3.73-.45c-.8-.16-12,.11-19.87,4.48s-12.2,7.18-12.82,10.49.11,9.36-.25,10.25a8.51,8.51,0,0,1-2.79,3.54c-1.51,1.09-5.55,3.82-5.74,5s1,2.55,1.2,2.82a11.46,11.46,0,0,1,1.2,2.46c.2.86.47,2.44,1.49,2.93s5.48.09,5.82.06a1.07,1.07,0,0,0,.91-.73,1.22,1.22,0,0,0-.34-1c-.16-.12-1.92-.17-2.77-1S34.05,85,34.16,84s.3-1.21.71-1.52,6.8-4.19,7.7-4.87a6.33,6.33,0,0,0,2-2.31c.11-.5.14-2,.53-1.93a18.41,18.41,0,0,1,3.77,1.33,1.89,1.89,0,0,1,.83,1.59,25.89,25.89,0,0,1-1,6.83c-.9,3.19-1.08,5.32-.71,6s3.83.66,4.48.66,7.56,0,8.27-.17,1.21-.86.39-1.38-3.48-.31-4.69-1-2.15-1.2-2.15-1.83a14,14,0,0,1,.79-3.76c.48-1.18,2-4.72,2.1-5.5a4.78,4.78,0,0,0-.63-3.17c-.67-1-3-2.89-3.3-3.64S53,68.23,53.19,68a5.4,5.4,0,0,1,2.22-.83c.63,0,6.48-.17,6.52.06a23,23,0,0,0,1.84,6.89c1.62,3.73,2.58,6.5,2.71,8a15.5,15.5,0,0,0,.68,3.8,3.37,3.37,0,0,0,1.33.95c.27.05,1.41.48,1,.63s-2.94-.38-3,0,.58,1.93,1.49,1.93a31.85,31.85,0,0,0,4.61,0c.65-.23,1-1.47,1-1.76s0-1.2-.41-1.49S70.31,85.31,70.1,84s-.29-5.94-.65-7.66a44.39,44.39,0,0,1-1.13-6.55c-.11-2.22.2-2.92.54-2.68a16.5,16.5,0,0,1,1.3,2.28,24.67,24.67,0,0,0,2.68,2.89c.69.59,4.62,3.28,5.43,4.33s1.3,1.77.73,1.88-1.88.29-2,1.12.26,3,.65,3a19.57,19.57,0,0,0,3.38-.4,9.65,9.65,0,0,0,1.4-3.22,4.6,4.6,0,0,0-.56-3.29c-.63-1-7.25-8.32-7.68-9.37s-.49-6.67,0-6.56a6,6,0,0,1,2.31.76,20.63,20.63,0,0,0,4.09,1.77,5.45,5.45,0,0,0,2.6-.34,2,2,0,0,0,1.14-1.08,2.53,2.53,0,0,1,.23-.69,7.25,7.25,0,0,0,0-2.35c-.16-.59-.56-1.29-.44-1.77a3.28,3.28,0,0,1,.67-1.35A4.7,4.7,0,0,0,85.44,54Z"/></svg>