<svg id="Layer_1" data-name="Layer 1" xmlns="http://www.w3.org/2000/svg" xmlns:xlink="http://www.w3.org/1999/xlink" viewBox="0 0 119.3 137.76"><defs><style>.cls-1{fill:none;}.cls-2{clip-path:url(#clip-path);}.cls-3{opacity:0.26;}.cls-4{fill:#231f20;opacity:0.68;}.cls-5{fill:#fff;}</style><clipPath id="clip-path"><rect class="cls-1" x="184.99" y="-756.18" width="1920" height="1018.09"/></clipPath></defs><g class="cls-2"><image class="cls-3" width="8918" height="3938" transform="translate(-59.8 -821.54) scale(0.28)" xlink:href="../../../Links/shutterstock_1164487231.jpg"/></g><polygon class="cls-4" points="8 39.29 8 98.93 59.65 128.75 111.3 98.93 111.3 39.29 59.65 9.47 8 39.29"/><path class="cls-4" d="M59.65,0,0,34.44v68.88l59.65,34.44,59.65-34.44V34.44ZM114.3,100.66,59.65,132.21,5,100.66V37.56L59.65,6,114.3,37.56Z"/><path class="cls-5" d="M51,53.72a79.19,79.19,0,0,1-9.91,0,.89.89,0,0,1-.86-.9V42.66a.9.9,0,0,1,.8-.9c1.66-.16,4.72,0,9.77,1.55,1.53.48,2.93.87,4.23,1.19v3.26a4.9,4.9,0,0,0,1,3.06,3.24,3.24,0,0,0,2,1.27c2.53.44,7.86-3.29,10.76-5.5-.55.88-1,2.48-1,6.35v.69C64,53,59.55,53.09,56.44,56c-.21.2-.43.4-.67.59A4.6,4.6,0,0,0,51,53.72Zm16.06,33c1.21-3.2,2-12.42,2-19.87.09-6.12,3.84-8.3,5.44-9a2,2,0,0,1,.66-.15q-.06-.67-.15-1.32A1.69,1.69,0,0,0,73.81,55c-1-.24-2.26-.61-3.76-.94,0-1.1,0-2.55.09-3.82a5.4,5.4,0,0,1,.69-2.66c.76-.86,2.37-2.3,3.33-3.14a1,1,0,0,0,0-1.41l-1.1-1.15a1,1,0,0,0-1.31-.09c-.29.23-.66.5-1,.78-.2.13-.4.27-.61.39a4.49,4.49,0,0,1-2,.81c-1.24,0-5.09.55-13.09-1.52l-.7-.19c-.91-.24-1.86-.52-2.87-.83-5.24-1.63-8.6-1.84-10.64-1.64a3.09,3.09,0,0,0-2.78,3.08V52.83A3.1,3.1,0,0,0,41,55.93a85.12,85.12,0,0,0,10.23,0,2.43,2.43,0,0,1,2.62,1.92l0,.16a42.48,42.48,0,0,1-11.82,5.24A1.81,1.81,0,0,0,40.65,65v5.7a15.29,15.29,0,0,0,.17,3l14.44-2.15a6.84,6.84,0,0,1,.91-.07,6.06,6.06,0,0,1,4,1.47,6.15,6.15,0,0,1,2.08,3.74l0,.32A6.11,6.11,0,0,1,57.12,84l-8,1.18c6.78,3.26,9.2,10.85,9.94,14a1.81,1.81,0,0,0,1.76,1.4h7.85a1.83,1.83,0,0,0,1.77-1.4c.1-.44.23-1,.37-1.61a2.1,2.1,0,0,1-.81-.36c-3.6-2.62-4.59-6.13-3-10.46Z"/><path class="cls-5" d="M43.17,43.34a1.1,1.1,0,1,0,1.09,1.1,1.1,1.1,0,0,0-1.09-1.1Z"/><path class="cls-5" d="M52.11,50.19a1.1,1.1,0,1,0,1.1,1.1,1.09,1.09,0,0,0-1.1-1.1Z"/><path class="cls-5" d="M55,77.78a1.1,1.1,0,1,1,1.1,1.09A1.1,1.1,0,0,1,55,77.78Zm5.15-.45L60.05,77a3.93,3.93,0,0,0-4.46-3.3L40.77,75.93a1.36,1.36,0,0,0-1.14,1.55l.8,5.37A1.37,1.37,0,0,0,42,84L56.8,81.79a3.93,3.93,0,0,0,3.3-4.46Z"/><path class="cls-5" d="M75.4,59.91c-1.34.55-4,2.23-4.07,7-.09,6.32-.71,16.67-2.2,20.62s-.08,6.25,2.2,7.9c1.74-8,4.72-23.77,4.07-35.48Z"/></svg>