<svg id="Layer_1" data-name="Layer 1" xmlns="http://www.w3.org/2000/svg" viewBox="0 0 119.3 137.76"><defs><style>.cls-1{fill:#231f20;opacity:0.68;}.cls-2{fill:#fff;}</style></defs><polygon class="cls-1" points="8 39.29 8 98.93 59.65 128.75 111.3 98.93 111.3 39.29 59.65 9.47 8 39.29"/><path class="cls-1" d="M59.65,0,0,34.44v68.88l59.65,34.44,59.65-34.44V34.44ZM114.3,100.66,59.65,132.21,5,100.66V37.56L59.65,6,114.3,37.56Z"/><path class="cls-2" d="M66.52,43.1a5,5,0,1,1-5-5A5,5,0,0,1,66.52,43.1Z"/><path class="cls-2" d="M42.29,95.65c-1.1,0-1.36-.63-.57-1.41l2.88-2.81A6.59,6.59,0,0,1,48,89.84l2.09-.19c1.1-.1,2.9-.18,4-.18H56A5.28,5.28,0,0,0,59.39,88l.77-.82c.75-.81,2-2.15,2.67-3L63,84a7.07,7.07,0,0,1,3.26-2l1.5-.34a20.88,20.88,0,0,1,3.73-.44,8.09,8.09,0,0,0,3.49-1l1.53-.92A7.58,7.58,0,0,0,79,76.48l.1-.22a21,21,0,0,0,1.24-3.79s.81-3.91,1-4.24,3.22-3.79,3.22-3.79c.72-.83,1.31-.61,1.31.49V93.64a2,2,0,0,1-2,2Z"/><path class="cls-2" d="M53.2,69v-.11a19.5,19.5,0,0,0,.31-2.06,14.3,14.3,0,1,1,.69-24.13,7.26,7.26,0,0,1,.57-2.42,16.64,16.64,0,1,0-1.7,29.42C53.12,69.43,53.16,69.19,53.2,69Z"/><path class="cls-2" d="M75.35,65.58c-.92-.3-1.88-.64-2.87-1a.91.91,0,0,1-.33-1.42c1-1.41,2.23-3.51,3.68-6.13a2.65,2.65,0,0,0,.2-1.29,2.11,2.11,0,0,0-.53-1.08c-2.21-1.39-4.94-3-7.91-4.7A6.38,6.38,0,0,0,65,49.52H58.08a9.57,9.57,0,0,0-3.87,1c-2.47,1.36-4.77,2.67-6.76,3.85a2.38,2.38,0,0,0-1,1.94,2.71,2.71,0,0,0,1.16,1.92A64.76,64.76,0,0,0,54.88,63,2.49,2.49,0,0,1,56,65.1a22.21,22.21,0,0,1-.44,4.24c-2,12.44-2.63,22.11-1.32,22.36s4.17-9.29,6.62-21.93a2.4,2.4,0,0,1,1.6-2.21c1.63-.45,8.41,1.91,11.27,2.6.07,6.64.62,10.92,1.54,11s2-4.32,2.94-11.16a4.08,4.08,0,0,0-.5-2.93A5.44,5.44,0,0,0,75.35,65.58ZM69,54.56c1.13.62,2.22,1.19,3.25,1.72a1,1,0,0,1,.28,1.28c-.92,2.21-1.6,4-2,5.36a1.08,1.08,0,0,1-1.34.61l-.71-.23c-1.26-.38-1-1.86-1-1.86l.48-6.4S68,54,69,54.56Zm-19.11,2c1.57-.79,3.28-1.66,5.06-2.61l.69,7s-.19.94-.81.33C53.72,60.08,52,58.45,49.89,56.52Z"/></svg>