<svg id="Layer_1" data-name="Layer 1" xmlns="http://www.w3.org/2000/svg" viewBox="0 0 119.3 137.76"><defs><style>.cls-1{fill:#231f20;opacity:0.68;}.cls-2{fill:#fff;}</style></defs><polygon class="cls-1" points="8 39.29 8 98.93 59.65 128.75 111.3 98.93 111.3 39.29 59.65 9.47 8 39.29"/><path class="cls-1" d="M59.65,0,0,34.44v68.88l59.65,34.44,59.65-34.44V34.44ZM114.3,100.66,59.65,132.21,5,100.66V37.56L59.65,6,114.3,37.56Z"/><path class="cls-2" d="M87.2,83.35a2.54,2.54,0,0,1-2.53-2.53.85.85,0,1,0-1.69,0,2.53,2.53,0,0,1-2.53,2.53.85.85,0,0,0,0,1.69A2.53,2.53,0,0,1,83,87.57a.85.85,0,0,0,1.69,0A2.53,2.53,0,0,1,87.2,85a.85.85,0,1,0,0-1.69Z"/><path class="cls-2" d="M81.3,42a2.54,2.54,0,0,1,2.53,2.53.85.85,0,1,0,1.69,0A2.53,2.53,0,0,1,88.05,42a.85.85,0,0,0,0-1.69,2.53,2.53,0,0,1-2.53-2.53.85.85,0,0,0-1.69,0A2.53,2.53,0,0,1,81.3,40.3a.85.85,0,1,0,0,1.69Z"/><path class="cls-2" d="M41.62,42a2.54,2.54,0,0,1,2.54,2.53.84.84,0,1,0,1.68,0A2.54,2.54,0,0,1,48.38,42a.85.85,0,0,0,0-1.69,2.54,2.54,0,0,1-2.54-2.53.84.84,0,0,0-1.68,0,2.54,2.54,0,0,1-2.54,2.53.85.85,0,0,0,0,1.69Z"/><path class="cls-2" d="M37.4,62.25a2.54,2.54,0,0,1,2.54,2.53.84.84,0,1,0,1.68,0,2.54,2.54,0,0,1,2.54-2.53.85.85,0,0,0,0-1.69A2.54,2.54,0,0,1,41.62,58a.84.84,0,1,0-1.68,0,2.54,2.54,0,0,1-2.54,2.53.85.85,0,0,0,0,1.69Z"/><path class="cls-2" d="M75.18,52.48a.84.84,0,0,0,.21,1.66.76.76,0,0,0,.21,0,8.88,8.88,0,0,1,3.86-.17.86.86,0,0,0,1-.68.84.84,0,0,0-.68-1A10.63,10.63,0,0,0,75.18,52.48Z"/><circle class="cls-2" cx="72.85" cy="41.15" r="2.53"/><circle class="cls-2" cx="40.78" cy="51.27" r="2.53"/><circle class="cls-2" cx="86.36" cy="64.78" r="2.53"/><circle class="cls-2" cx="84.67" cy="49.59" r="2.53"/><circle class="cls-2" cx="67.79" cy="83.35" r="2.53"/><path class="cls-2" d="M83.85,71.7a.84.84,0,0,0,.82.68l.17,0a.85.85,0,0,0,.66-1,7.22,7.22,0,0,0-5.77-5.73.86.86,0,0,0-1,.71.85.85,0,0,0,.71,1A5.59,5.59,0,0,1,83.85,71.7Z"/><path class="cls-2" d="M73.92,47.33a.84.84,0,0,0,0,1.19.85.85,0,0,0,.57.22.86.86,0,0,0,.63-.27,13,13,0,0,1,4.7-3.15.84.84,0,1,0-.52-1.6A14.38,14.38,0,0,0,73.92,47.33Z"/><path class="cls-2" d="M57.37,41.94c3.62,1.34,2.87,5.62,2.84,5.8a.84.84,0,0,0,.67,1H61a.85.85,0,0,0,.83-.68c.38-2,.06-6.23-3.92-7.71a.85.85,0,0,0-.58,1.59Z"/><path class="cls-2" d="M51.07,55.56l-3.71,7.86h0a36,36,0,0,0,3,20.72l10.34-4.87-.38-.45C56.65,74.61,50.43,67.3,51.07,55.56Z"/><path class="cls-2" d="M45.23,67.94,35,89.74A.85.85,0,0,0,35.72,91a.94.94,0,0,0,.36-.08l12.7-6A37.55,37.55,0,0,1,45.23,67.94Z"/><path class="cls-2" d="M72.74,61.75a23.79,23.79,0,0,1,8.52-1.19.82.82,0,0,0,.88-.81.85.85,0,0,0-.8-.88,25.42,25.42,0,0,0-9.76,1.49c-.74-.86-1.51-1.71-2.34-2.57a19.46,19.46,0,0,1,2.39-1.86.84.84,0,0,0,.24-1.17.83.83,0,0,0-1.16-.24A21,21,0,0,0,68,56.6c-.78-.76-1.57-1.48-2.35-2.16,1.4-2.84,2.94-6.69,2.94-9.92a.84.84,0,1,0-1.68,0c0,2.76-1.32,6.15-2.59,8.78a36.37,36.37,0,0,0-4.2-2.95c-3-1.73-5-2.07-6.11-1a2,2,0,0,0-.49.92l-.07.16c-3.12,14.2,4.11,22.68,8.06,27.3l.68.8,13.31-6.28a1.86,1.86,0,0,0,.92-.49c1.08-1.07.74-3.12-1-6.1A33.74,33.74,0,0,0,72.74,61.75Zm2.57,8.75-.34.16c-1.73.26-6.61-2.61-11.91-7.9s-8.14-10.18-7.9-11.92l.16-.34c.32-.16,1.45-.17,4,1.31a35.13,35.13,0,0,1,4.26,3C62.72,56.46,62,57.54,62,57.57a.84.84,0,0,0,.71,1.3.87.87,0,0,0,.71-.39c.07-.11.68-1.07,1.45-2.5.65.56,1.29,1.16,1.93,1.79a20.45,20.45,0,0,0-1.39,1.58.85.85,0,0,0,.16,1.19.87.87,0,0,0,.51.17.82.82,0,0,0,.67-.34s.47-.6,1.25-1.41c.67.69,1.3,1.37,1.9,2.06a19.39,19.39,0,0,0-2.6,1.37.84.84,0,0,0-.23,1.17.85.85,0,0,0,.7.38.82.82,0,0,0,.47-.15,18.48,18.48,0,0,1,2.82-1.42A35.34,35.34,0,0,1,74,66.51C75.48,69.05,75.48,70.18,75.31,70.5Z"/></svg>