<svg id="Layer_1" data-name="Layer 1" xmlns="http://www.w3.org/2000/svg" viewBox="0 0 119.3 137.76"><defs><style>.cls-1{fill:#231f20;opacity:0.68;}.cls-2{fill:#fff;fill-rule:evenodd;}</style></defs><polygon class="cls-1" points="8 39.29 8 98.93 59.65 128.75 111.3 98.93 111.3 39.29 59.65 9.47 8 39.29"/><path class="cls-1" d="M59.65,0,0,34.44v68.88l59.65,34.44,59.65-34.44V34.44ZM114.3,100.66,59.65,132.21,5,100.66V37.56L59.65,6,114.3,37.56Z"/><path class="cls-2" d="M59.58,92.12H44.79c-1.16-.21-1.51-1.76-1.94-3.18-4.74,1.34-8.39-2.86-8.44-6.56s4.26-9.59,10.45-5.81c0,0,1.86-2.29,4.67-5.7s4.27-6.19,6-7.94a12.22,12.22,0,0,0,3.81-5.58c1.44-3.5,1.32-2.09,2.95-7.05s3.1-6.56,4.44-8.11a18.86,18.86,0,0,1,1.68-3c.93-1.29,1.54-2.12,1.8-2s-.13,3-.13,3a20.66,20.66,0,0,1,1.74-2.45c.2,0,.2,1.16,0,2.5s.16,1.28.46,1.34A7.46,7.46,0,0,1,75.34,43c.8.91,1.07,1.51,2.1,1.62s3.58.1,3.82.53A2.85,2.85,0,0,1,80.48,48c-.9.64-.54.74-.43.77s.64.12.25.71a2.2,2.2,0,0,1-1.4,1.16c-.61.1-3.14.32-4.32.62a63.47,63.47,0,0,0-.92,6.89c-.35,4.1.8,6,.06,8.83s-2,7.38-4.53,9.82c0,0,.72,5,1.18,8.14s1,5.19,1.26,5.22,1.48,0,2,.59,1.11,1.6.74,1.88h-5s-.34-.18-.93-1.61a100.43,100.43,0,0,1-3.67-11.66,23.06,23.06,0,0,0-6,3.67S59,86.1,55.4,88s-2.63,2-2.63,2a26.41,26.41,0,0,1,4.1-.19c1.16.16,2.35.69,2.66,1.43.25.56.26.71,0,.9Z"/></svg>