<svg id="Layer_1" data-name="Layer 1" xmlns="http://www.w3.org/2000/svg" viewBox="0 0 119.3 137.76"><defs><style>.cls-1{fill:#231f20;opacity:0.68;}.cls-2{fill:#fff;}</style></defs><polygon class="cls-1" points="8 39.29 8 98.93 59.65 128.75 111.3 98.93 111.3 39.29 59.65 9.47 8 39.29"/><path class="cls-1" d="M59.65,0,0,34.44v68.88l59.65,34.44,59.65-34.44V34.44ZM114.3,100.66,59.65,132.21,5,100.66V37.56L59.65,6,114.3,37.56Z"/><path class="cls-2" d="M78.79,50.47s2.28-.75,2.77,2.13c-2.91.27-2.77-2.13-2.77-2.13Zm9,10.4.51.33a1.59,1.59,0,0,0,1.76,0c2.11-1.43,3.93-2.85,3-3.4-1.59-1-9-6.49-9-6.49A13.79,13.79,0,0,1,82.44,48c-.34-.91-2-1.5-3.87-1.87.37-2.07.41-4.44-1-5.42-2.69-1.92-5.16-3.54-5.16-3.54a54,54,0,0,0-.76,6,3.23,3.23,0,0,0-1.92-1.87c-3.18-.86-6.06-1.52-6.06-1.52a52.24,52.24,0,0,0,1.7,6.93,18.58,18.58,0,0,0-5.12,6.77L62.64,55c.1.07,2.54,1.68,5.23,3.59,1.54,1.1,2.27,3,2.18,5.57A5.17,5.17,0,0,1,73.56,67a18.42,18.42,0,0,0,1,2.35,7.62,7.62,0,0,0,.06-3.07c-.63-2-.24-5.43,1.35-5.91s9.44,4.29,9.92,3.65a1.6,1.6,0,0,1,.25-.22.82.82,0,0,0-.09-1.37l-8-5,.54.2a7.6,7.6,0,0,1,5.8,1.06l2.24,1.46-.39,1.76,1.51-1Z"/><path class="cls-2" d="M40.89,55.23s.14,2.4-2.77,2.13c.49-2.88,2.77-2.13,2.77-2.13ZM29.64,66a1.59,1.59,0,0,0,1.76,0l.52-.33,1.5,1L33,64.89l2.24-1.46a7.6,7.6,0,0,1,5.8-1.06l.54-.2-8,5a.82.82,0,0,0-.1,1.37,1.23,1.23,0,0,1,.25.22c.48.64,8.33-4.12,9.92-3.65S45.65,69,45,71c-.33,1,0,3.07.42,4.81,1.81-4.56,3.86-7.94,6.12-10.11A56.66,56.66,0,0,1,50.24,60l-.58-3.5,3.46.79c.11,0,2.32.54,5,1.25l.51.13c.08-.59.16-1.08.23-1.44l-.15-.26a16.74,16.74,0,0,0-4.45-5.5A53.16,53.16,0,0,0,56,44.5s-2.89.66-6.07,1.52A3.23,3.23,0,0,0,48,47.89a54,54,0,0,0-.76-6s-2.47,1.62-5.15,3.54c-1.39,1-1.34,3.35-1,5.42-1.92.37-3.53,1-3.87,1.87a13.79,13.79,0,0,1-1.58,3.33s-7.46,5.52-9,6.49c-.9.55.92,2,3,3.4Z"/><path class="cls-2" d="M67.74,70.85a2.33,2.33,0,0,1-.06-.55,2.19,2.19,0,0,1,1.67.19,2.6,2.6,0,0,1,1.1,2c-2,.18-2.56-.9-2.71-1.59Zm8.92,9.85.51.34a1.59,1.59,0,0,0,1.76,0c2.11-1.42,3.93-2.85,3-3.4-1.2-.73-5.8-4.1-7.94-5.67l-1.1-.82a7.06,7.06,0,0,1-.72-1.27c-.24-.5-.54-1.17-.87-2.06s-2-1.49-3.87-1.87c.37-2.06.41-4.43-1-5.42C63.81,58.6,61.33,57,61.33,57s-.35,1.85-.6,4.17c-.06.58-.11,1.19-.15,1.81a3.26,3.26,0,0,0-1.93-1.86l-1.28-.35c-2.63-.69-4.78-1.18-4.78-1.18a54.11,54.11,0,0,0,1.7,6.93c-2.42,1.77-4.41,5-6,8.69-.53,1.21-1,2.46-1.45,3.72A94.53,94.53,0,0,0,43,94H62.29s1.9-5.87,1.27-7.89-.24-5.44,1.34-5.91,9.45,4.28,9.92,3.65a1.56,1.56,0,0,1,.25-.22A.82.82,0,0,0,75,82.23l-8-5,.54.21a7.54,7.54,0,0,1,5.79,1L75.54,80l-.39,1.76,1.51-1Z"/></svg>