<svg id="Layer_1" data-name="Layer 1" xmlns="http://www.w3.org/2000/svg" viewBox="0 0 119.3 137.76"><defs><style>.cls-1{fill:#231f20;opacity:0.68;}.cls-2{fill:#fff;}</style></defs><polygon class="cls-1" points="8 39.29 8 98.93 59.65 128.75 111.3 98.93 111.3 39.29 59.65 9.47 8 39.29"/><path class="cls-1" d="M59.65,0,0,34.44v68.88l59.65,34.44,59.65-34.44V34.44ZM114.3,100.66,59.65,132.21,5,100.66V37.56L59.65,6,114.3,37.56Z"/><path class="cls-2" d="M54,40.55l5.42,20.33a4.87,4.87,0,0,0,3.45,3.44l20.33,5.43L62.86,75.18a4.87,4.87,0,0,0-3.45,3.44L54,99,48.56,78.62a4.86,4.86,0,0,0-3.45-3.44L24.78,69.75l20.33-5.43a4.86,4.86,0,0,0,3.45-3.44Z"/><path class="cls-2" d="M90,70.62l.8,3a.75.75,0,0,0,.51.51l3,.8-3,.8a.75.75,0,0,0-.51.51l-.8,3-.8-3a.77.77,0,0,0-.51-.51l-3-.8,3-.8a.77.77,0,0,0,.51-.51Z"/><path class="cls-2" d="M74.09,81.14l1.7,6.39a1.51,1.51,0,0,0,1.08,1.08l6.39,1.71L76.87,92a1.53,1.53,0,0,0-1.08,1.09l-1.7,6.38-1.71-6.38A1.53,1.53,0,0,0,71.3,92l-6.39-1.7,6.39-1.71a1.51,1.51,0,0,0,1.08-1.08Z"/><path class="cls-2" d="M93.05,84.31l.54,2.06a.51.51,0,0,0,.35.35l2.06.55-2.06.54a.51.51,0,0,0-.35.35l-.54,2.06-.55-2.06a.51.51,0,0,0-.35-.35l-2.06-.54,2.06-.55a.51.51,0,0,0,.35-.35Z"/><path class="cls-2" d="M37.39,79.19l1.23,4.59a1.09,1.09,0,0,0,.77.77L44,85.78,39.39,87a1.1,1.1,0,0,0-.77.78l-1.23,4.59-1.22-4.59a1.1,1.1,0,0,0-.78-.78L30.8,85.78l4.59-1.23a1.09,1.09,0,0,0,.78-.77Z"/><path class="cls-2" d="M72.48,39.63l1.3,4.88a1.18,1.18,0,0,0,.83.83l4.89,1.31L74.61,48a1.18,1.18,0,0,0-.83.83l-1.3,4.89-1.31-4.89a1.15,1.15,0,0,0-.82-.83l-4.89-1.3,4.89-1.31a1.15,1.15,0,0,0,.82-.83Z"/><path class="cls-2" d="M85.42,52.92l.4,1.49a.35.35,0,0,0,.25.26l1.49.39-1.49.4a.35.35,0,0,0-.25.26l-.4,1.49L85,55.72a.36.36,0,0,0-.25-.26l-1.5-.4,1.5-.39a.36.36,0,0,0,.25-.26Z"/></svg>