<svg id="Layer_1" data-name="Layer 1" xmlns="http://www.w3.org/2000/svg" viewBox="0 0 119.3 137.76"><defs><style>.cls-1{fill:#231f20;opacity:0.68;}.cls-2{fill:#fff;}</style></defs><polygon class="cls-1" points="8 39.29 8 98.93 59.65 128.75 111.3 98.93 111.3 39.29 59.65 9.47 8 39.29"/><path class="cls-1" d="M59.65,0,0,34.44v68.88l59.65,34.44,59.65-34.44V34.44ZM114.3,100.66,59.65,132.21,5,100.66V37.56L59.65,6,114.3,37.56Z"/><rect class="cls-2" x="49.13" y="87.33" width="21.54" height="13.17"/><rect class="cls-2" x="54.81" y="76.64" width="3.56" height="9.92"/><rect class="cls-2" x="61.43" y="76.64" width="3.56" height="9.92"/><path class="cls-2" d="M66.05,63.36a.73.73,0,0,1-.1,1.15l-.48.34a2,2,0,0,0-.73,1.43v8.53a.9.9,0,0,1-.91.9h-8a.9.9,0,0,1-.9-.9V66.28a2,2,0,0,0-.74-1.43l-.48-.34a.73.73,0,0,1-.1-1.15l2.13-2.14a2.52,2.52,0,0,1,1.54-.63h5.12a2.52,2.52,0,0,1,1.54.63Z"/><polygon class="cls-2" points="66.11 57.45 64.49 52.56 66.06 52.56 59.84 27.59 59.8 27.43 59.76 27.59 53.54 52.56 55.2 52.56 53.58 57.45 56.66 57.45 56.66 59.37 62.98 59.37 62.98 57.45 66.11 57.45"/><polygon class="cls-2" points="59.84 27.36 59.8 27.43 59.84 27.49 59.84 27.36"/><polygon class="cls-2" points="59.76 27.49 59.8 27.43 59.76 27.36 59.76 27.49"/><path class="cls-2" d="M65.23,58.82a1.55,1.55,0,0,0-.16,2.38l1.07,1.06a1.54,1.54,0,0,0,2.37-.16l9.86-12.81c.61-.79.46-.93-.33-.33Z"/><path class="cls-2" d="M54.46,58.82a1.55,1.55,0,0,1,.16,2.38l-1.07,1.06a1.54,1.54,0,0,1-2.37-.16L41.32,49.29c-.61-.79-.46-.93.33-.33Z"/></svg>