<svg id="Layer_1" data-name="Layer 1" xmlns="http://www.w3.org/2000/svg" viewBox="0 0 119.3 137.76"><defs><style>.cls-1{fill:#231f20;opacity:0.68;}.cls-2{fill:#fff;}</style></defs><polygon class="cls-1" points="8 39.29 8 98.93 59.65 128.75 111.3 98.93 111.3 39.29 59.65 9.47 8 39.29"/><path class="cls-1" d="M59.65,0,0,34.44v68.88l59.65,34.44,59.65-34.44V34.44ZM114.3,100.66,59.65,132.21,5,100.66V37.56L59.65,6,114.3,37.56Z"/><polygon class="cls-2" points="54.77 48.99 50.01 43.55 39.96 43.55 35.2 48.99 44.99 58.14 54.77 48.99"/><path class="cls-2" d="M73.81,54.43a20,20,0,0,0-12.1,4,22.61,22.61,0,0,1,2.64,3.46,15.72,15.72,0,1,1-5.73,8.36A14.13,14.13,0,0,0,56,65.17a20.11,20.11,0,1,0,17.8-10.74Z"/><path class="cls-2" d="M45,90.31A16.31,16.31,0,0,1,41.68,58L38,54.56A20.66,20.66,0,1,0,57.89,90.14a22.35,22.35,0,0,1-2.73-3.4A16.25,16.25,0,0,1,45,90.31Z"/><path class="cls-2" d="M63.43,83.31A20.66,20.66,0,0,0,52,54.56L48.29,58a16.33,16.33,0,0,1,13,16,16.09,16.09,0,0,1-.57,4.25A13.59,13.59,0,0,0,63.43,83.31Z"/></svg>