<svg id="Layer_1" data-name="Layer 1" xmlns="http://www.w3.org/2000/svg" viewBox="0 0 119.3 137.76"><defs><style>.cls-1{fill:#231f20;opacity:0.68;}.cls-2{fill:#fff;fill-rule:evenodd;}</style></defs><polygon class="cls-1" points="8 39.29 8 98.93 59.65 128.75 111.3 98.93 111.3 39.29 59.65 9.47 8 39.29"/><path class="cls-1" d="M59.65,0,0,34.44v68.88l59.65,34.44,59.65-34.44V34.44ZM114.3,100.66,59.65,132.21,5,100.66V37.56L59.65,6,114.3,37.56Z"/><path class="cls-2" d="M39.69,62.94,65.1,37.52l-5.45-5.44-20,20V62.94Zm0,30.85L67.37,66.11,79.62,78.37V67.47L67.37,55.22,39.69,82.9V93.79ZM61.92,76.1l17.7,17.69V82.9L67.37,70.65,61.92,76.1ZM39.69,78.37,67.37,50.68,79.62,62.94V52.05L67.37,39.79,39.69,67.47v10.9Z"/></svg>