<svg id="Layer_1" data-name="Layer 1" xmlns="http://www.w3.org/2000/svg" viewBox="0 0 119.3 137.76"><defs><style>.cls-1{fill:#231f20;opacity:0.68;}.cls-2{fill:#fff;fill-rule:evenodd;}</style></defs><polygon class="cls-1" points="8 39.29 8 98.93 59.65 128.75 111.3 98.93 111.3 39.29 59.65 9.47 8 39.29"/><path class="cls-1" d="M59.65,0,0,34.44v68.88l59.65,34.44,59.65-34.44V34.44ZM114.3,100.66,59.65,132.21,5,100.66V37.56L59.65,6,114.3,37.56Z"/><path class="cls-2" d="M59.21,31.5A20.93,20.93,0,1,0,79.4,53.14,20.92,20.92,0,0,0,59.21,31.5Z"/><path class="cls-2" d="M65.08,76s-.8,3.32-3.27,3a2.36,2.36,0,0,1-2.2,1.48,2,2,0,0,0,.54,0,2,2,0,0,1-.85,1.34A2.05,2.05,0,0,1,58.85,83a10.89,10.89,0,0,1-1.26,3.41,6.6,6.6,0,0,0,1.53-3.28h0s4-.76,5.88.54c0,0,3.45.13,2.15,3.32.67,3.41-1.57,8.12-.58,9.38a4,4,0,0,0,2.24,1.53c.36,0,1.08,0,1.08,0s.18,1.08-.81.81c0,0-.45.54-1.62.31A5.24,5.24,0,0,0,65,98.87c-.76.22-1.53-.22-1.26-1.12,1-2.83.72-3.32-.18-6.11-.18-.58-.53-3.09.81-4.39,0,0,.59,0,.76.09,0,0-.35-.77-1.79-.18s-1.66.94-6.1,0c0,0-1.17,2.51-2.88,3,0,0-.71,1.8-1.88,1.48a1.49,1.49,0,0,1-.81-.67,1,1,0,0,0,.81.9,3.63,3.63,0,0,0-1.12.9s-.05.09-.09.13c-.32.4-1.26,1.12-3.46,1.26-2.47.18-3,3.68-2.6,4l.81,0a.63.63,0,0,1-.95.58,3.35,3.35,0,0,1-2.2,0c-.85-.44-.22-2.06-.22-2.06S44,94,44.4,93.89s1.79-1.66,2-2,.85-1.8,3.86-2.43a4.46,4.46,0,0,1,.67-1c.5-.58.05-2.87,1.44-3.81,0,0,.27.54.63.67,0,0-1.84-3.63.81-4.8s.76-3.1,1.3-5.88a7.85,7.85,0,0,1,1.57-.27c.63.05,1,.94,1,1s-.13-1.17-.9-1.21-1.25.53-3-.14c-1.71.67-4.58-.49-6.33-1.7a1.29,1.29,0,0,1-.32-.18c-1.43-1-2.42-1.57-2.6-2.29,0-.23.36,0,.36,0s-.49-.5-.4-.68.62.23.62.23-.4-.36-.31-.54.58.09.58.09-.18-.4,0-.45,1.88,1.62,2.11,1.35a3.21,3.21,0,0,1,.09-.77.44.44,0,0,1,.4-.26c0,.62.36,1.48.27,1.92,0,.14.45.41.81.59a2.7,2.7,0,0,0,1.3.31c.72-.09,2.15-.81,3.28-.09,0,0,2.19-1.61,4.17-.63,0,0,2.33-.67,3.37.27a4.45,4.45,0,0,0,1.48,1l-.9-.72a11.41,11.41,0,0,1,3.5.31s-.22-1.3.76-1.34a1.33,1.33,0,0,1,1.93-.63s1.44-.23,1.75.89c0,0,1.39.45,1.35,1.26,0,0,1.17,1.53.18,2.2s-1.26-.27-2.16-.45c.63.36.77.68,1.08.81a9.15,9.15,0,0,1-1.21,1.79l-.36-.22c-.67.09-.94,1.08-1.75.94-.36,0-.85-.89-1.21-1s-.5,0-.5,0Z"/><path class="cls-2" d="M36.36,99.63H75.72a124.88,124.88,0,0,0-39.36,0Z"/></svg>