<svg id="Layer_1" data-name="Layer 1" xmlns="http://www.w3.org/2000/svg" viewBox="0 0 119.3 137.76"><defs><style>.cls-1{fill:#231f20;opacity:0.68;}.cls-2{fill:#fff;}</style></defs><polygon class="cls-1" points="8 39.29 8 98.93 59.65 128.75 111.3 98.93 111.3 39.29 59.65 9.47 8 39.29"/><path class="cls-1" d="M59.65,0,0,34.44v68.88l59.65,34.44,59.65-34.44V34.44ZM114.3,100.66,59.65,132.21,5,100.66V37.56L59.65,6,114.3,37.56Z"/><path class="cls-2" d="M76.31,62.69A20.49,20.49,0,1,0,55.82,83.18,20.51,20.51,0,0,0,76.31,62.69ZM55.82,80A17.26,17.26,0,1,1,73.08,62.69,17.28,17.28,0,0,1,55.82,80Z"/><path class="cls-2" d="M87.27,90.8,76.34,79.87h0a1.17,1.17,0,0,0-1.63,0L72,82.54a1.15,1.15,0,0,0,0,1.63L83,95.1a1.16,1.16,0,0,0,.81.33h0a1.16,1.16,0,0,0,.81-.33l2.67-2.67A1.15,1.15,0,0,0,87.27,90.8Z"/><path class="cls-2" d="M71.83,77.5l-.27.28a19.8,19.8,0,0,1-1.64,1.54l-.31.27,1.75,1.75,2.15-2.15Z"/><polygon class="cls-2" points="64.58 70.31 64.58 56.99 61.17 56.99 61.17 62.26 61.17 70.31 64.58 70.31"/><polygon class="cls-2" points="51.06 58.31 51.06 53.73 47.65 53.73 47.65 70.31 51.06 70.31 51.06 58.31"/><polygon class="cls-2" points="55.57 70.31 55.57 62.26 55.57 59.41 52.16 59.41 52.16 70.31 55.57 70.31"/><rect class="cls-2" x="56.67" y="63.36" width="3.41" height="6.95"/></svg>