<svg id="Layer_1" data-name="Layer 1" xmlns="http://www.w3.org/2000/svg" viewBox="0 0 119.3 137.76"><defs><style>.cls-1{fill:#231f20;opacity:0.68;}.cls-2{fill:#fff;}</style></defs><polygon class="cls-1" points="8 39.29 8 98.93 59.65 128.75 111.3 98.93 111.3 39.29 59.65 9.47 8 39.29"/><path class="cls-1" d="M59.65,0,0,34.44v68.88l59.65,34.44,59.65-34.44V34.44ZM114.3,100.66,59.65,132.21,5,100.66V37.56L59.65,6,114.3,37.56Z"/><path class="cls-2" d="M39.29,47.62A29.36,29.36,0,1,1,80.82,89.14c-5.55,5.55-13.72,9.4-21.57,9.4A29.4,29.4,0,0,1,29.89,69.17C29.89,61.07,34,52.94,39.29,47.62Zm38,38A24.42,24.42,0,0,0,60.05,44C46.58,44,34.83,55.7,34.83,69.17A24.45,24.45,0,0,0,59.25,93.6C65.78,93.6,72.71,90.26,77.32,85.65Z"/><rect class="cls-2" x="30.88" y="84.92" width="24.15" height="1.1" transform="translate(-47.86 55.41) rotate(-45)"/><rect class="cls-2" x="43.76" y="81.34" width="1.1" height="5.56" transform="translate(-46.5 55.97) rotate(-45)"/><rect class="cls-2" x="64.28" y="51.52" width="24.15" height="1.1" transform="translate(-14.46 69.24) rotate(-45)"/><rect class="cls-2" x="74.44" y="50.65" width="1.1" height="5.56" transform="translate(-15.82 68.68) rotate(-45)"/><rect class="cls-2" x="43.2" y="40" width="1.1" height="24.15" transform="translate(-24.01 46.19) rotate(-45)"/><rect class="cls-2" x="41.37" y="53.28" width="6.68" height="1.1" transform="translate(-24.97 47.38) rotate(-45)"/><rect class="cls-2" x="75.8" y="72.6" width="1.1" height="24.15" transform="translate(-37.51 78.79) rotate(-45)"/><rect class="cls-2" x="71.25" y="83.17" width="6.68" height="1.1" transform="translate(-37.35 77.27) rotate(-45)"/><path class="cls-2" d="M62,70.36c-1.1,1.1-3.68,1.9-4.78.8s-.3-3.68.8-4.77a2.81,2.81,0,0,1,4,4Z"/><path class="cls-2" d="M48.13,56.46A16.85,16.85,0,0,1,72,80.29c-6.57,6.57-18.06,7.37-24.63.8S41.56,63,48.13,56.46ZM71.19,79.51A15.75,15.75,0,1,0,48.91,57.24c-6.14,6.14-6.94,16.93-.8,23.07S65.05,85.66,71.19,79.51Z"/></svg>