<svg id="Layer_1" data-name="Layer 1" xmlns="http://www.w3.org/2000/svg" viewBox="0 0 119.3 137.76"><defs><style>.cls-1{fill:#231f20;opacity:0.68;}.cls-2{fill:#fff;}</style></defs><polygon class="cls-1" points="8 39.29 8 98.93 59.65 128.75 111.3 98.93 111.3 39.29 59.65 9.47 8 39.29"/><path class="cls-1" d="M59.65,0,0,34.44v68.88l59.65,34.44,59.65-34.44V34.44ZM114.3,100.66,59.65,132.21,5,100.66V37.56L59.65,6,114.3,37.56Z"/><path class="cls-2" d="M42.22,55.25a5,5,0,0,0-5,4.78v8.71a5,5,0,0,0,5,4.79c19.41.6,28.43,8.16,28.43,8.16V46.79S61.64,54.63,42.22,55.25Z"/><path class="cls-2" d="M72.08,45.91l2.37-1.37a1.33,1.33,0,0,1,2,1V83.61a1.34,1.34,0,0,1-2.17,1l-2.24-1.68Z"/><path class="cls-2" d="M35.76,71.17a6.58,6.58,0,1,1,0-13.16"/><path class="cls-2" d="M51.92,76c-2.63-1.09-8.75-1-8.75-1l6.91,12.95a.94.94,0,0,0,.88.5l6.31-.33a.94.94,0,0,0,.77-1.4Z"/><line class="cls-2" x1="81.34" y1="67.19" x2="89.24" y2="68.93"/><path class="cls-2" d="M89.24,69.85l-.2,0-7.89-1.74a.92.92,0,0,1,.39-1.8L89.44,68a.92.92,0,0,1-.2,1.81Z"/><line class="cls-2" x1="79.51" y1="73.65" x2="85.02" y2="78.28"/><path class="cls-2" d="M85,79.19a1,1,0,0,1-.59-.21l-5.5-4.63A.92.92,0,0,1,80.1,73l5.51,4.62a.94.94,0,0,1,.11,1.3A.93.93,0,0,1,85,79.19Z"/><line class="cls-2" x1="81.34" y1="60.46" x2="89.24" y2="58.7"/><path class="cls-2" d="M81.34,61.38a.92.92,0,0,1-.2-1.82L89,57.8a.92.92,0,0,1,.4,1.79l-7.9,1.76A.64.64,0,0,1,81.34,61.38Z"/><line class="cls-2" x1="79.51" y1="53.92" x2="85.02" y2="49.24"/><path class="cls-2" d="M79.51,54.84a.92.92,0,0,1-.6-1.62l5.51-4.68a.92.92,0,1,1,1.19,1.4L80.1,54.62A.88.88,0,0,1,79.51,54.84Z"/></svg>