<svg id="Layer_1" data-name="Layer 1" xmlns="http://www.w3.org/2000/svg" viewBox="0 0 119.3 137.76"><defs><style>.cls-1{fill:#231f20;opacity:0.68;}.cls-2{fill:#fff;}</style></defs><polygon class="cls-1" points="8 39.29 8 98.93 59.65 128.75 111.3 98.93 111.3 39.29 59.65 9.47 8 39.29"/><path class="cls-1" d="M59.65,0,0,34.44v68.88l59.65,34.44,59.65-34.44V34.44ZM114.3,100.66,59.65,132.21,5,100.66V37.56L59.65,6,114.3,37.56Z"/><path class="cls-2" d="M40.11,49.44l3.12,8.89H31.94Zm8.59,8.89,10.38-9.64,10.39,9.64ZM71,61.09l-12,34.14-12-34.14ZM54.9,91.65,31.59,61.09H44.2ZM74,61.09H86.58L63.26,91.65ZM62.6,48.19h13l-3.18,9.07ZM45.78,57.26,42.6,48.19h13Zm29.16,1.07,3.11-8.89,8.17,8.89Z"/></svg>