<svg id="Layer_1" data-name="Layer 1" xmlns="http://www.w3.org/2000/svg" viewBox="0 0 119.3 137.76"><defs><style>.cls-1{fill:#231f20;opacity:0.68;}.cls-2{fill:#fff;}</style></defs><polygon class="cls-1" points="8 39.29 8 98.93 59.65 128.75 111.3 98.93 111.3 39.29 59.65 9.47 8 39.29"/><path class="cls-1" d="M59.65,0,0,34.44v68.88l59.65,34.44,59.65-34.44V34.44ZM114.3,100.66,59.65,132.21,5,100.66V37.56L59.65,6,114.3,37.56Z"/><circle class="cls-2" cx="69.04" cy="43.72" r="6.61" transform="translate(-1.8 84.46) rotate(-62.24)"/><path class="cls-2" d="M45.85,74.86,43,80.2l-10.21.17A3.31,3.31,0,0,0,32.81,87h0L45,86.79a3.3,3.3,0,0,0,2.82-1.67l3-5.25C47.89,77.61,46.48,76,45.85,74.86Z"/><path class="cls-2" d="M79.78,59.38l-8.73.68-5.91-6.39A10.85,10.85,0,0,0,60,49.46l-10.8-3.09a2.89,2.89,0,0,0-2.86.76l-5.65,5.73a2.9,2.9,0,0,0,4.13,4.07l4.44-4.52L54.8,54c-.18.25-.37.51-.56.79a61.06,61.06,0,0,0-7.46,14.73c-.44,1.25-.79,3.09,1.71,6L57.91,84,53.44,94.53a3.31,3.31,0,0,0,1.75,4.34,3.27,3.27,0,0,0,1.29.26,3.31,3.31,0,0,0,3.05-2l5.4-12.73a3.33,3.33,0,0,0-.84-3.76l-8.17-7.32c.09-.18,1.56-4.58,7-13.55L67.75,65a2.87,2.87,0,0,0,2.12.93l10.36-.79a2.9,2.9,0,1,0-.45-5.78Z"/><path class="cls-2" d="M72.48,88.49a5.32,5.32,0,1,0,5.32,5.32A5.32,5.32,0,0,0,72.48,88.49Z"/></svg>