<svg id="Layer_1" data-name="Layer 1" xmlns="http://www.w3.org/2000/svg" xmlns:xlink="http://www.w3.org/1999/xlink" viewBox="0 0 119.3 137.76"><defs><style>.cls-1{fill:none;}.cls-2{clip-path:url(#clip-path);}.cls-3{opacity:0.26;}.cls-4{fill:#231f20;opacity:0.68;}.cls-5{fill:#fff;}</style><clipPath id="clip-path"><rect class="cls-1" x="193.39" y="-413.14" width="1920" height="1018.09"/></clipPath></defs><g class="cls-2"><image class="cls-3" width="8918" height="3938" transform="translate(-51.39 -478.51) scale(0.28)" xlink:href="../../../Links/shutterstock_1164487231.jpg"/></g><polygon class="cls-4" points="8 39.29 8 98.93 59.65 128.75 111.3 98.93 111.3 39.29 59.65 9.47 8 39.29"/><path class="cls-4" d="M59.65,0,0,34.44v68.88l59.65,34.44,59.65-34.44V34.44ZM114.3,100.66,59.65,132.21,5,100.66V37.56L59.65,6,114.3,37.56Z"/><circle class="cls-5" cx="95.89" cy="56.39" r="3.49"/><path class="cls-5" d="M103.75,60.2a2.16,2.16,0,0,0-3-.08L97,63.61,86.78,53.69a2.16,2.16,0,0,0-3,0L81,56.36H75a.79.79,0,1,0,0,1.57h6.52a.79.79,0,0,1,.78.79.78.78,0,0,1-.78.78H77.66l0,0a2.16,2.16,0,1,0,3,3.13l4.66-4.43,2.06,2L83,64.53H68.2a.79.79,0,1,0,0,1.57H82.65a.79.79,0,0,1,0,1.57H72.44a.79.79,0,1,0,0,1.57h6.67a.79.79,0,0,1,.79.79.78.78,0,0,1-.79.78h-1.6L75.2,74l-7.14,5.44a2.16,2.16,0,0,0,1.31,3.88,2.19,2.19,0,0,0,1.3-.44l7.39-5.63a2.62,2.62,0,0,0,.44-.44L82.72,71l5.51,1.64L84.66,76a2.15,2.15,0,0,0-.1,3,2.13,2.13,0,0,0,1.57.69,2.17,2.17,0,0,0,1.48-.59l6.33-5.92a2.17,2.17,0,0,0-.87-3.65l-3.21-1L93,65.69l2.55,2.47a2.18,2.18,0,0,0,1.5.61,2.15,2.15,0,0,0,1.49-.6l5.18-4.91A2.17,2.17,0,0,0,103.75,60.2Z"/><path class="cls-5" d="M72.2,57.93h.55a.79.79,0,1,0,0-1.57H72.2a.79.79,0,0,0,0,1.57Z"/><path class="cls-5" d="M31.71,58.44a2.85,2.85,0,1,1-2.84-2.85A2.85,2.85,0,0,1,31.71,58.44Z"/><path class="cls-5" d="M28,62.6l-.05-.38a1,1,0,0,0-1.06-.94s-5.56.76-5.64.8a.64.64,0,0,0-.38.34s-1.91,4.32-1.91,4.33a1.27,1.27,0,0,0,2.31,1l1.49-3.39,4.46-.6A1,1,0,0,0,28,62.6Z"/><path class="cls-5" d="M24.68,73.67l-.09,0a2.09,2.09,0,0,1-1.7-1.52l-2.33,2.68-6,.36a1.6,1.6,0,1,0,.2,3.2L21.67,78a1.07,1.07,0,0,0,.74-.38h0l2.9-3.36Z"/><path class="cls-5" d="M37,65.88a1.21,1.21,0,0,0-1.33-1.06l-3.66.6-1.61-1.87,0,.14-.64,2.92c.64.74,1.16,1.32,1.18,1.34a.66.66,0,0,0,.5.13L36,67.31A1.2,1.2,0,0,0,37,65.88Z"/><path class="cls-5" d="M32.13,75.16l-4-3.41L30,63.46c.18-.83-.58-1.71-1.69-2l-.74-.16a1.88,1.88,0,0,0-2.36,1.07l-1.95,8.9c-.19.84.57,1.72,1.69,2l.08,0,4.16,3.54c-.32,1.93-.94,5.65-.94,5.67a1.61,1.61,0,1,0,3.17.52s1.14-6.92,1.14-7A1.12,1.12,0,0,0,32.13,75.16Z"/><circle class="cls-5" cx="44.18" cy="55.83" r="2.46"/><path class="cls-5" d="M43.39,59.43l0-.33a.87.87,0,0,0-.92-.81s-4.81.65-4.87.69a.55.55,0,0,0-.33.3L35.58,63a1.09,1.09,0,0,0,2,.88L38.86,61l3.86-.51A.86.86,0,0,0,43.39,59.43Z"/><path class="cls-5" d="M40.56,69h-.07A1.8,1.8,0,0,1,39,67.66L37,70l-5.15.31A1.39,1.39,0,1,0,32,73.06l6-.36a.9.9,0,0,0,.64-.32h0l2.51-2.9Z"/><path class="cls-5" d="M51.18,62.27A1,1,0,0,0,50,61.35l-3.16.52-1.4-1.62a.5.5,0,0,1,0,.12l-.56,2.53c.56.63,1,1.14,1,1.15a.56.56,0,0,0,.43.11l4-.66A1,1,0,0,0,51.18,62.27Z"/><path class="cls-5" d="M47,70.28l-3.47-2.94,1.58-7.17c.16-.72-.5-1.48-1.46-1.69L43,58.34a1.62,1.62,0,0,0-2,.92L39.29,67c-.16.72.5,1.48,1.46,1.69l.08,0,3.59,3c-.28,1.67-.81,4.89-.81,4.9a1.38,1.38,0,1,0,2.73.46s1-6,1-6A1,1,0,0,0,47,70.28Z"/></svg>