<svg id="Layer_1" data-name="Layer 1" xmlns="http://www.w3.org/2000/svg" viewBox="0 0 59.16 69.68"><defs><style>.cls-1{fill:#7f7f7f;}</style></defs><path class="cls-1" d="M32.26,16.83c-1.63,1.42-3.17,2.77-4.74,4.08-.34.29-.62.95-1.11.69s-.32-.86-.36-1.34c-.35-4,1.66-6.83,4.79-9a17.16,17.16,0,0,1,9.22-2.94c.91,0,1.41-.2,1.58-1.24.3-1.75.83-3.47,1.24-5.2.14-.6.35-.86,1.07-.72,2,.38,4,.65,5.94.94.66.09.91.28.65,1-.61,1.72-1.08,3.49-1.69,5.21-.29.81-.21,1.21.66,1.56a12.81,12.81,0,0,1,5.81,4.52,8,8,0,0,1,.12,9.48c-.84-.76-1.74-1.49-2.51-2.34-.54-.59-.86-.68-1.41,0-1,1.17-2.08,2.24-3.09,3.39-.49.55-.78.47-1.2-.07-1.47-1.84-3-3.63-4.46-5.48-.5-.63-.84-.8-1.52-.19-1.26,1.14-2.66,2.13-3.92,3.26-.77.69-1.18.75-1.74-.24C34.57,20.41,33.41,18.67,32.26,16.83Z"/><path class="cls-1" d="M53.88,39.54a139,139,0,0,0-.83-14.31c-.08-.89-.33-1-1-.43-1,.86-2.15,1.65-3.17,2.54-.65.56-1.06.61-1.69-.07C45.85,25.79,44.36,24.43,43,23c-.54-.57-.92-.69-1.61-.2-1.43,1-3,1.83-4.39,2.85-.86.62-1.26.42-1.79-.4-1.08-1.69-2.29-3.3-3.4-5-.47-.71-.74-.62-1.15,0a39,39,0,0,1-3.92,5.23,13.32,13.32,0,0,1-6.12,4.07,47.71,47.71,0,0,0-9.81,4.27c-6.09,3.57-9,8.81-8.33,15.91a17,17,0,0,0,8.18,13.07c10.39,6.75,21.1,6.38,31.67.44,5.51-3.11,9.47-7.69,10.89-14.07A40.55,40.55,0,0,0,53.88,39.54ZM25.23,35.91c-1.38-2-1-5,.69-6.3,2.24-1.68,5.45-.91,7.95,2.1C30.05,31.45,27.05,32.51,25.23,35.91ZM46,34.54a10,10,0,0,1-1.36,3.22c-.35.59-.6.53-.79-.12s-.37-1-.53-1.47c-.9-2.76-2.46-4.79-5.62-5.16a10.3,10.3,0,0,1,5.7-.54C45.51,30.87,46.42,32.42,46,34.54Z"/></svg>