<svg id="Layer_1" data-name="Layer 1" xmlns="http://www.w3.org/2000/svg" xmlns:xlink="http://www.w3.org/1999/xlink" viewBox="0 0 70.7 67.24"><defs><style>.cls-1{fill:none;}.cls-2{clip-path:url(#clip-path);}.cls-3{opacity:0.26;}.cls-4{fill:#737271;}</style><clipPath id="clip-path"><rect class="cls-1" x="225.88" y="-225.2" width="1920" height="1018.09"/></clipPath></defs><g class="cls-2"><image class="cls-3" width="8918" height="3938" transform="translate(-18.9 -290.56) scale(0.28)" xlink:href="../../../Links/shutterstock_1164487231.jpg"/></g><path class="cls-4" d="M57.19,67.24,35.35,55.75,13.5,67.24l4.17-24.33L0,25.68l24.42-3.55L35.35,0,46.27,22.13,70.7,25.68,53,42.91ZM35.35,53.1,54.08,63,50.5,42.09,65.66,27.32,44.71,24.27l-9.36-19L26,24.27,5,27.32,20.19,42.09,16.61,63Z"/><polygon class="cls-4" points="35.35 48.45 22.09 55.41 24.62 40.65 13.9 30.2 28.72 28.04 35.35 14.61 41.98 28.04 56.8 30.2 46.07 40.65 48.61 55.41 35.35 48.45"/></svg>