<svg id="Layer_1" data-name="Layer 1" xmlns="http://www.w3.org/2000/svg" viewBox="0 0 58.5 58.5"><defs><style>.cls-1{fill:#231f20;opacity:0.68;}</style></defs><path class="cls-1" d="M56,19.68H41.37a2.54,2.54,0,0,1-2.54-2.54V2.54A2.54,2.54,0,0,0,36.29,0H22.22a2.54,2.54,0,0,0-2.54,2.54V17.18a2.29,2.29,0,0,1,0,.25,2.54,2.54,0,0,1-2.52,2.25H2.54A2.54,2.54,0,0,0,0,22.22V36.33a2.54,2.54,0,0,0,2.54,2.54h14.6a2.54,2.54,0,0,1,2.54,2.53V56a2.53,2.53,0,0,0,2.54,2.53H36.29A2.54,2.54,0,0,0,38.83,56V41.37c0-.09,0-.17,0-.25a2.54,2.54,0,0,1,2.53-2.25H56a2.54,2.54,0,0,0,2.53-2.54V22.22A2.53,2.53,0,0,0,56,19.68ZM11.29,29.25v3.91L7.9,31.21l-3.38-2L7.9,27.3l3.39-2ZM27.3,7.9l1.95-3.38,2,3.38,1.95,3.39H25.34Zm3.91,42.7-2,3.39L27.3,50.6l-2-3.38h7.82ZM29.25,37a7.1,7.1,0,1,1,7.1-7.09A7.08,7.08,0,0,1,29.25,37ZM50.6,31.21l-3.38,1.95V25.34l3.38,2L54,29.25Z"/></svg>