<svg id="Layer_1" data-name="Layer 1" xmlns="http://www.w3.org/2000/svg" xmlns:xlink="http://www.w3.org/1999/xlink" viewBox="0 0 119.3 137.76"><defs><style>.cls-1{fill:#222;}.cls-2{opacity:0.27;}.cls-3{clip-path:url(#clip-path);}.cls-4{fill:#231f20;opacity:0.68;}.cls-5{fill:#fff;}</style><clipPath id="clip-path"><rect class="cls-1" x="173.57" y="-59.83" width="1921.55" height="1019.18"/></clipPath></defs><g class="cls-2"><rect class="cls-1" x="173.57" y="-59.83" width="1921.55" height="1019.18"/><g class="cls-3"><image width="10829" height="5239" transform="translate(59.6 -113.24) scale(0.21)" xlink:href="../../../Links/shutterstock_1166174734.jpg"/></g></g><polygon class="cls-4" points="8 39.29 8 98.93 59.65 128.75 111.3 98.93 111.3 39.29 59.65 9.47 8 39.29"/><path class="cls-4" d="M59.65,0,0,34.44v68.88l59.65,34.44,59.65-34.44V34.44ZM114.3,100.66,59.65,132.21,5,100.66V37.56L59.65,6,114.3,37.56Z"/><path class="cls-5" d="M84.07,79.13a4.61,4.61,0,0,0-.4-1.55l0-.09a.44.44,0,0,0,.14-.51c-1-1-2.77-.62-4.1-.48s-1.59,0-1.59,0a36.61,36.61,0,0,1-5.37-4.17L72,68.63s-.48-7.15-1.06-9.17-1.58-2.54-3.84-3a5.26,5.26,0,0,1-3.22-1.77h0a4.13,4.13,0,0,1-.93-1.9,8.89,8.89,0,0,0,.63-2c.06.11.34,0,.34,0a5.22,5.22,0,0,0,1.17-2.94c.12-.75-.53-.59-.53-.59,1.36-6.89-4.71-6.72-4.71-6.72s-6.07-.17-4.71,6.72c0,0-.65-.16-.53.59a5.24,5.24,0,0,0,1.18,2.94s.27.11.34,0a8.61,8.61,0,0,0,.62,2,3.9,3.9,0,0,1-.93,1.9h0a5.26,5.26,0,0,1-3.22,1.77c-2.25.44-3.26,1-3.84,3a82.06,82.06,0,0,0-1,9.17L47,72.28a36.89,36.89,0,0,1-5.38,4.17s-.25.2-1.59,0-3.14-.51-4.1.48a.44.44,0,0,0,.14.51l0,.09a4.61,4.61,0,0,0-.4,1.55,6.48,6.48,0,0,0,.16,1.64.09.09,0,0,0,0,.07.07.07,0,0,0,.06,0,3.94,3.94,0,0,0,.47.1l.23,0s.19,0,.21,0a2,2,0,0,0,1.31.19,1.35,1.35,0,0,0,.86.37,5,5,0,0,0,1.57,4c1.65,2.27,6.06,3.64,6.06,3.64a2.15,2.15,0,0,0-1.17.86A3,3,0,0,0,44.85,92a1.66,1.66,0,0,0,.82,1.49,6.21,6.21,0,0,0,.88.13,2.24,2.24,0,0,0,.57.13,1.13,1.13,0,0,0,.49-.16,10.11,10.11,0,0,1,4-.87,27.34,27.34,0,0,0,4.34-.13A14.06,14.06,0,0,0,58,92a12.68,12.68,0,0,1,1.84-.54v-.12h0v.12a12.32,12.32,0,0,1,1.84.54,14.06,14.06,0,0,0,2.07.55,27.34,27.34,0,0,0,4.34.13,10.07,10.07,0,0,1,4,.87,1.13,1.13,0,0,0,.49.16,2.24,2.24,0,0,0,.57-.13,6.58,6.58,0,0,0,.89-.13A1.68,1.68,0,0,0,74.83,92a3,3,0,0,0-.55-1.89,2.15,2.15,0,0,0-1.17-.86s4.41-1.37,6.07-3.64a5,5,0,0,0,1.56-4,1.35,1.35,0,0,0,.86-.37A2,2,0,0,0,82.91,81s.17,0,.21,0l.23,0a3.56,3.56,0,0,0,.47-.1.07.07,0,0,0,.06,0,.16.16,0,0,0,0-.07A6.47,6.47,0,0,0,84.07,79.13Zm-40.37-.3a10.55,10.55,0,0,0-1.25,0h0s5-.74,7-2.67A3.14,3.14,0,0,0,50.64,74s.85-3.7,1.33-7.28c0,0,1.27,4.71.81,7.32a31.83,31.83,0,0,1-1.72,5.68Zm32.28,0-7.35.9a31.46,31.46,0,0,1-1.73-5.68c-.46-2.61.81-7.32.81-7.32.48,3.58,1.34,7.28,1.34,7.28a3.1,3.1,0,0,0,1.14,2.14c2,1.93,7,2.67,7,2.67h0A10.55,10.55,0,0,0,76,78.83Z"/></svg>