<svg id="Layer_1" data-name="Layer 1" xmlns="http://www.w3.org/2000/svg" xmlns:xlink="http://www.w3.org/1999/xlink" viewBox="0 0 119.3 137.76"><defs><style>.cls-1{fill:none;}.cls-2{clip-path:url(#clip-path);}.cls-3{opacity:0.26;}.cls-4{fill:#231f20;opacity:0.68;}.cls-5{fill:#fff;}</style><clipPath id="clip-path"><rect class="cls-1" x="188.38" y="-587.3" width="1920" height="1018.09"/></clipPath></defs><g class="cls-2"><image class="cls-3" width="8918" height="3938" transform="translate(-56.4 -652.67) scale(0.28)" xlink:href="../../../Links/shutterstock_1164487231.jpg"/></g><polygon class="cls-4" points="8 39.29 8 98.93 59.65 128.75 111.3 98.93 111.3 39.29 59.65 9.47 8 39.29"/><path class="cls-4" d="M59.65,0,0,34.44v68.88l59.65,34.44,59.65-34.44V34.44ZM114.3,100.66,59.65,132.21,5,100.66V37.56L59.65,6,114.3,37.56Z"/><path class="cls-5" d="M68,42.06l1.63-.59a3.43,3.43,0,1,0,.09-2.2L63.3,37.71a1,1,0,0,0-1.15.56l-9,20.37a1,1,0,0,1-1.56.37l-9-7.46a1,1,0,0,0-1.46.2l-4.7,6.75a3.33,3.33,0,0,0-1.64-.42,3.44,3.44,0,1,0,3.44,3.44A3.35,3.35,0,0,0,37.84,60L39.37,59a1,1,0,0,1,1.47.35l4.77,9a1,1,0,0,0,.88.53H73.61a1,1,0,0,0,.93-.62l3.83-9.31a1,1,0,0,1,.93-.62h2.22A3.44,3.44,0,1,0,82.14,56l-5-2.55a1,1,0,0,0-1.09.11l-5.93,4.77a1,1,0,0,1-1.63-.7L67.36,43.08A1,1,0,0,1,68,42.06Z"/><path class="cls-5" d="M72.12,71.05H47.61a1.54,1.54,0,0,0-1.53,1.74c2.63,21.32,12.27,22.82,13.61,22.92a1.61,1.61,0,0,0,.31,0c1.37-.17,11.53-2.1,13.66-23A1.55,1.55,0,0,0,72.12,71.05ZM66.39,86.48c-2.8,4.83-6.41,4.8-6.53,4.8s-3.73,0-6.53-4.8a.42.42,0,0,1,.59-.57,12,12,0,0,0,5.94,2.19,12,12,0,0,0,5.93-2.19A.43.43,0,0,1,66.39,86.48Z"/></svg>