<svg id="Layer_1" data-name="Layer 1" xmlns="http://www.w3.org/2000/svg" viewBox="0 0 119.3 137.76"><defs><style>.cls-1{fill:#231f20;opacity:0.68;}.cls-2{fill:#fff;}</style></defs><polygon class="cls-1" points="8 39.29 8 98.93 59.65 128.75 111.3 98.93 111.3 39.29 59.65 9.47 8 39.29"/><path class="cls-1" d="M59.65,0,0,34.44v68.88l59.65,34.44,59.65-34.44V34.44ZM114.3,100.66,59.65,132.21,5,100.66V37.56L59.65,6,114.3,37.56Z"/><path class="cls-2" d="M77.74,55.23V72a2.51,2.51,0,0,1-2.51,2.51h0A2.5,2.5,0,0,1,72.68,72V55.28h-1V69.49a5,5,0,0,1-5,5.05H65.26V97.32a2.5,2.5,0,0,1-2.51,2.5h0a2.5,2.5,0,0,1-2.5-2.5V74.6H59.1V97.32a2.5,2.5,0,0,1-2.5,2.5h-.05a2.5,2.5,0,0,1-2.5-2.5V74.54H52.68a5,5,0,0,1-5-5.05V55.28h-1V72a2.51,2.51,0,0,1-2.51,2.51h0A2.5,2.5,0,0,1,41.57,72V55.23a5,5,0,0,1,5-5H59.1V69.54h1.1V50.22H72.72A5,5,0,0,1,77.74,55.23ZM65.89,37.94a5.69,5.69,0,1,0,5.69,5.69A5.69,5.69,0,0,0,65.89,37.94ZM47.72,43.63a5.69,5.69,0,1,0,5.69-5.69A5.69,5.69,0,0,0,47.72,43.63Z"/></svg>