<svg id="Layer_1" data-name="Layer 1" xmlns="http://www.w3.org/2000/svg" xmlns:xlink="http://www.w3.org/1999/xlink" viewBox="0 0 119.3 137.76"><defs><style>.cls-1{fill:none;}.cls-2{fill:#231f20;opacity:0.68;}.cls-3{clip-path:url(#clip-path);}.cls-4{fill:#fff;}</style><clipPath id="clip-path"><ellipse class="cls-1" cx="55.92" cy="61" rx="35.98" ry="38.65"/></clipPath></defs><polygon class="cls-2" points="8 39.29 8 98.93 59.65 128.75 111.3 98.93 111.3 39.29 59.65 9.47 8 39.29"/><path class="cls-2" d="M59.65,0,0,34.44v68.88l59.65,34.44,59.65-34.44V34.44ZM114.3,100.66,59.65,132.21,5,100.66V37.56L59.65,6,114.3,37.56Z"/><g class="cls-3"><path class="cls-4" d="M79,72.78a33.93,33.93,0,0,1,1.64-4.9,28.65,28.65,0,0,1,6-9.11c1.59-1.65-.2-2.57-.2-2.57-2.09-1.44-5.76.84-7.46,2.33s-4.58,5.81-5.46,7.32-1,1.28-1,1.28c-.55-.49-3.4-3.61-3.87-7.09s1-16.47,1.32-19.2.64-6.12-2.07-6.18-3,1.87-3,1.87S63,46.68,62.67,48.32s-.64,8.1-2.55,8.31-2.36-7.77-2.36-7.77-1.59-8.28-2-11.77-2.06-4.92-4.23-4.67-1.83,4.16-1.83,4.16.38,2.4.49,4.32,1.1,11.65,1.2,12.76.8,4.73,0,4.94-1.15-1.2-1.76-2.28-4.91-12.1-5.58-13.83-1.49-4.93-4.45-4.4S38.19,41.31,38.28,42s1.92,5.8,2.16,6.63,3.11,10.71,3.32,11.57S45,63.36,44,64s-2.21-.6-2.21-.6-7.55-7.77-8.36-8.77S31,51.51,28.51,52.87s2.24,6,3.53,7.34,6.05,8.48,6.92,9.4,2.91,6.42,3.43,8.81a42.14,42.14,0,0,0,2.46,6.3,6,6,0,0,0,.25-.79,46.62,46.62,0,0,1,2.24-6.72,14.94,14.94,0,0,0,1.46-3.78c0-.54.54-4.17.53-5s-.19-3.63,1-3.34,1.08,1.45,1.05,2,.11,5.19.11,5.19,0,.76.52.82.85-1,1-1.29,2.13-4.29,2.29-4.62,1.07-2.48,1.24-2.72S57,63,58.11,63.65s.42,1.94.13,2.68-2.11,5.47-2.23,6-.4,1.07-.1,1.23S57,72.35,57.33,72s2.79-3.74,3.31-4.38,1.09-1.51,1.09-1.51,1-1.34,1.78-.79.86,1.47,0,2.7-2.76,4.3-2.76,4.3-2.16,2.66-1.5,3.14,2.65-1.45,3.21-1.89,4.09-3.1,4.09-3.1.65-.52,1.49.28-.23,1.79-1.12,2.56a62.84,62.84,0,0,0-6,5.69,5.93,5.93,0,0,0-.82,3.36s0,.1.68-.12a18.17,18.17,0,0,1,3.84-.74c1,0,2.79.36,3,1.42,0,0,.3.81-.68.87a12.15,12.15,0,0,0-4.51,1.16A14,14,0,0,0,60.55,86,23,23,0,0,1,57,87.59c-.79.11-3.07,1-3.3,1.38s-1.38,2.46-1.56,2.79c-.07.12-.89,1.93-1.93,4.24a45.06,45.06,0,0,1,2.07,9c.94,4.93,1.53,10.06,2.17,12.73l30.62,13.35S73.77,96.83,73.56,96s-1.44-6.18-1.7-7.28,2.33-6.15,3.51-7.57S79,72.78,79,72.78Z"/></g></svg>