<svg version="1.1" id="Layer_1" xmlns="http://www.w3.org/2000/svg" xmlns:xlink="http://www.w3.org/1999/xlink" x="0px" y="0px"
	 viewBox="0 0 1316.81 339.58" style="enable-background:new 0 0 1316.81 339.58;" xml:space="preserve">
<style type="text/css">
	.st2{fill:#545454;}
</style>
<g>
	<g>
		<path class="st2" d="M76.12,274.49l-10.23-12.28c-2.48,0.62-5.21,0.93-8.18,0.93c-6.14,0-11.7-1.43-16.69-4.28
			c-4.99-2.85-8.93-6.85-11.81-12c-2.88-5.15-4.32-10.94-4.32-17.39s1.44-12.23,4.32-17.34s6.82-9.1,11.81-11.95
			c4.99-2.85,10.56-4.28,16.69-4.28c6.14,0,11.7,1.43,16.69,4.28c4.99,2.85,8.93,6.83,11.81,11.95c2.88,5.12,4.32,10.9,4.32,17.34
			c0,6.01-1.24,11.46-3.72,16.32c-2.48,4.87-5.92,8.79-10.32,11.76l15.53,16.93H76.12z M40.74,240.87c1.64,3.25,3.92,5.75,6.84,7.49
			c2.91,1.74,6.29,2.6,10.14,2.6c3.84,0,7.22-0.87,10.14-2.6c2.91-1.74,5.19-4.23,6.84-7.49c1.64-3.26,2.46-7.05,2.46-11.39
			s-0.82-8.14-2.46-11.39c-1.64-3.25-3.92-5.75-6.84-7.49c-2.92-1.74-6.29-2.6-10.14-2.6c-3.84,0-7.22,0.87-10.14,2.6
			c-2.92,1.74-5.19,4.23-6.84,7.49c-1.64,3.25-2.46,7.05-2.46,11.39S39.09,237.62,40.74,240.87z"/>
		<path class="st2" d="M199.07,196.84v38.5c0,5.15,1.13,9.01,3.39,11.58c2.26,2.57,5.53,3.86,9.81,3.86c4.22,0,7.45-1.29,9.72-3.86
			c2.26-2.57,3.39-6.43,3.39-11.58v-38.5h13.02v38.5c0,6.08-1.13,11.21-3.39,15.39c-2.26,4.19-5.39,7.3-9.39,9.35
			s-8.54,3.07-13.62,3.07c-7.87,0-14.17-2.36-18.88-7.07c-4.71-4.71-7.07-11.62-7.07-20.74v-38.5H199.07z"/>
		<path class="st2" d="M375.95,249.29h-26.32l-4.65,13.21h-13.86l24.18-64.91h14.97l24.09,64.91h-13.86L375.95,249.29z
			 M372.42,239.34l-9.67-27.71l-9.67,27.71H372.42z"/>
		<path class="st2" d="M521.68,262.49l-15.34-25.58h-5.77v25.58h-13.11v-65.66h25.02c7.63,0,13.44,1.86,17.44,5.58
			c4,3.72,6,8.62,6,14.69c0,4.96-1.38,9.11-4.14,12.46c-2.76,3.35-6.74,5.58-11.95,6.7l16.37,26.23H521.68z M500.57,227.9h10.79
			c7.5,0,11.25-3.32,11.25-9.95c0-3.16-0.92-5.63-2.74-7.39c-1.83-1.77-4.67-2.65-8.51-2.65h-10.79V227.9z"/>
		<path class="st2" d="M681.09,202.09c5.27,3.94,8.65,9.25,10.14,15.95h-13.76c-1.3-2.98-3.36-5.35-6.18-7.11
			c-2.82-1.77-6.15-2.65-10-2.65c-3.78,0-7.13,0.87-10.04,2.6c-2.92,1.74-5.18,4.22-6.79,7.44c-1.61,3.22-2.42,7.01-2.42,11.35
			c0,6.88,1.84,12.25,5.53,16.09c3.69,3.84,8.73,5.77,15.11,5.77c4.71,0,8.76-1.4,12.14-4.19c3.38-2.79,5.56-6.66,6.56-11.62h-22.23
			v-9.39h33.2v12.65c-0.93,4.34-2.74,8.34-5.44,12c-2.7,3.66-6.23,6.59-10.6,8.79c-4.37,2.2-9.38,3.3-15.02,3.3
			c-6.45,0-12.14-1.41-17.07-4.23c-4.93-2.82-8.74-6.76-11.44-11.81c-2.7-5.05-4.05-10.83-4.05-17.34s1.35-12.29,4.05-17.34
			c2.7-5.05,6.49-9,11.39-11.86c4.9-2.85,10.57-4.28,17.02-4.28C669.18,196.19,675.81,198.15,681.09,202.09z"/>
		<path class="st2" d="M828.21,249.29h-26.32l-4.65,13.21h-13.86l24.18-64.91h14.97l24.09,64.91h-13.86L828.21,249.29z
			 M824.68,239.34L815,211.62l-9.67,27.71H824.68z"/>
		<path class="st2" d="M1010.49,197.58v64.91h-13.02V217.2l-16.65,45.29h-11.35l-16.65-45.11v45.11h-13.11v-64.91h15.9l19.72,48.83
			l19.34-48.83H1010.49z"/>
		<path class="st2" d="M1121.53,207.25v17.02h23.25v10.04h-23.25v17.67h26.04v10.51h-39.15v-65.66h39.15v10.42H1121.53z"/>
		<path class="st2" d="M1285.86,253.8c-1.67,2.82-4.15,5.08-7.44,6.79c-3.29,1.71-7.29,2.56-12,2.56c-4.65,0-8.8-0.79-12.46-2.37
			c-3.66-1.58-6.59-3.86-8.79-6.83c-2.2-2.98-3.46-6.45-3.77-10.42h13.95c0.31,2.67,1.38,4.88,3.21,6.65
			c1.83,1.77,4.26,2.65,7.3,2.65c2.73,0,4.82-0.73,6.28-2.19c1.46-1.46,2.19-3.33,2.19-5.63c0-2.05-0.59-3.73-1.77-5.07
			c-1.18-1.33-2.67-2.4-4.46-3.21c-1.8-0.81-4.28-1.74-7.44-2.79c-4.09-1.36-7.44-2.71-10.04-4.05c-2.6-1.33-4.82-3.27-6.65-5.81
			c-1.83-2.54-2.74-5.86-2.74-9.95c0-5.64,2.03-10.09,6.09-13.34c4.06-3.26,9.44-4.88,16.14-4.88c6.94,0,12.48,1.67,16.6,5.02
			c4.12,3.35,6.46,7.81,7.02,13.39h-14.14c-0.37-2.36-1.36-4.29-2.98-5.81c-1.61-1.52-3.81-2.28-6.6-2.28
			c-2.42,0-4.37,0.64-5.86,1.91c-1.49,1.27-2.23,3.12-2.23,5.53c0,1.92,0.57,3.52,1.72,4.79c1.15,1.27,2.6,2.31,4.37,3.12
			c1.77,0.81,4.17,1.71,7.21,2.7c4.22,1.49,7.64,2.88,10.28,4.18c2.63,1.3,4.88,3.25,6.74,5.86c1.86,2.6,2.79,6.01,2.79,10.23
			C1288.37,247.89,1287.54,250.98,1285.86,253.8z"/>
	</g>
	<rect x="22.97" y="308.49" class="st2" width="1264.48" height="14.15"/>
	<g>
		<path class="st2" d="M414.8,45.58v2h-10.92v9.42h9.45v1.92h-9.45v11.34h-2.48V45.58H414.8z"/>
		<path class="st2" d="M456.48,70.25l-6.76-10.29h-3.99v10.29h-2.48V45.58h7.56c2.78,0,4.85,0.65,6.21,1.96
			c1.36,1.31,2.05,3.07,2.05,5.29c0,2.05-0.58,3.69-1.73,4.9c-1.16,1.21-2.83,1.94-5.02,2.17l6.96,10.36H456.48z M445.74,58.11h4.9
			c3.97,0,5.95-1.72,5.95-5.15c0-3.5-1.98-5.25-5.95-5.25h-4.9V58.11z"/>
		<path class="st2" d="M485.5,47.85v-2.27h6.26v24.67h-2.55v-22.4H485.5z"/>
		<path class="st2" d="M519.41,47.85v-2.27h6.26v24.67h-2.55v-22.4H519.41z"/>
		<path class="st2" d="M591.58,59.96v10.29h-2.48V45.58h7.38c2.78,0,4.85,0.64,6.21,1.92c1.37,1.28,2.05,3.04,2.05,5.29
			c0,2.29-0.71,4.05-2.12,5.3c-1.41,1.25-3.46,1.87-6.14,1.87H591.58z M600.86,56.55c0.93-0.88,1.4-2.13,1.4-3.76
			c0-1.68-0.47-2.96-1.4-3.83c-0.93-0.88-2.46-1.31-4.58-1.31h-4.69v10.22h4.69C598.4,57.86,599.92,57.43,600.86,56.55z"/>
		<path class="st2" d="M646.36,70.25l-6.76-10.29h-3.99v10.29h-2.48V45.58h7.56c2.78,0,4.85,0.65,6.21,1.96
			c1.36,1.31,2.05,3.07,2.05,5.29c0,2.05-0.58,3.69-1.73,4.9c-1.16,1.21-2.83,1.94-5.02,2.17l6.96,10.36H646.36z M635.61,58.11h4.9
			c3.97,0,5.95-1.72,5.95-5.15c0-3.5-1.98-5.25-5.95-5.25h-4.9V58.11z"/>
		<path class="st2" d="M680.03,47.57v9.31h9.62v1.92h-9.62v9.42h10.67v2.03h-13.16V45.58h13.16v2H680.03z"/>
		<path class="st2" d="M733.73,67.16c-0.52,0.99-1.34,1.8-2.43,2.42c-1.1,0.62-2.46,0.93-4.1,0.93c-1.59,0-3-0.29-4.23-0.88
			c-1.24-0.58-2.22-1.38-2.96-2.4c-0.74-1.02-1.16-2.15-1.28-3.41h2.59c0.09,0.72,0.36,1.45,0.8,2.17c0.44,0.72,1.08,1.32,1.93,1.8
			c0.84,0.48,1.85,0.72,3.04,0.72c1.56,0,2.76-0.42,3.59-1.26c0.83-0.84,1.24-1.9,1.24-3.19c0-1.1-0.27-1.99-0.82-2.68
			s-1.23-1.22-2.03-1.59c-0.81-0.37-1.91-0.78-3.31-1.23c-1.54-0.49-2.78-0.96-3.73-1.42c-0.94-0.46-1.74-1.13-2.4-2.01
			c-0.65-0.89-0.98-2.06-0.98-3.54c0-1.87,0.65-3.38,1.96-4.55c1.31-1.17,3.1-1.75,5.39-1.75c2.33,0,4.18,0.57,5.55,1.71
			c1.37,1.14,2.18,2.57,2.43,4.27h-2.62c-0.21-1.05-0.76-1.98-1.66-2.8c-0.9-0.82-2.13-1.23-3.69-1.23c-1.45,0-2.6,0.37-3.46,1.12
			c-0.86,0.75-1.3,1.79-1.3,3.12c0,1.05,0.27,1.9,0.81,2.55c0.54,0.65,1.2,1.16,1.98,1.5c0.78,0.35,1.85,0.75,3.2,1.19
			c1.56,0.49,2.83,0.97,3.8,1.43c0.97,0.47,1.79,1.17,2.47,2.1s1.02,2.17,1.02,3.71C734.52,65.11,734.26,66.17,733.73,67.16z"/>
		<path class="st2" d="M765.99,47.57v9.31h9.62v1.92h-9.62v9.42h10.67v2.03H763.5V45.58h13.16v2H765.99z"/>
		<path class="st2" d="M823.91,70.25h-2.49l-13.51-20.62v20.62h-2.48V45.61h2.48l13.51,20.65V45.61h2.49V70.25z"/>
		<path class="st2" d="M868.19,45.58v2h-7.04v22.68h-2.45V47.57h-7v-2H868.19z"/>
		<path class="st2" d="M910.24,67.16c-0.52,0.99-1.34,1.8-2.43,2.42c-1.1,0.62-2.46,0.93-4.1,0.93c-1.59,0-3-0.29-4.23-0.88
			c-1.24-0.58-2.22-1.38-2.96-2.4c-0.74-1.02-1.16-2.15-1.28-3.41h2.59c0.09,0.72,0.36,1.45,0.8,2.17c0.44,0.72,1.08,1.32,1.93,1.8
			c0.84,0.48,1.85,0.72,3.04,0.72c1.56,0,2.76-0.42,3.59-1.26c0.83-0.84,1.24-1.9,1.24-3.19c0-1.1-0.27-1.99-0.82-2.68
			s-1.23-1.22-2.03-1.59c-0.81-0.37-1.91-0.78-3.31-1.23c-1.54-0.49-2.78-0.96-3.73-1.42c-0.94-0.46-1.74-1.13-2.4-2.01
			c-0.65-0.89-0.98-2.06-0.98-3.54c0-1.87,0.65-3.38,1.96-4.55c1.31-1.17,3.1-1.75,5.39-1.75c2.33,0,4.18,0.57,5.55,1.71
			c1.37,1.14,2.18,2.57,2.43,4.27h-2.62c-0.21-1.05-0.76-1.98-1.66-2.8c-0.9-0.82-2.13-1.23-3.69-1.23c-1.45,0-2.6,0.37-3.46,1.12
			c-0.86,0.75-1.3,1.79-1.3,3.12c0,1.05,0.27,1.9,0.81,2.55c0.54,0.65,1.2,1.16,1.98,1.5c0.78,0.35,1.85,0.75,3.2,1.19
			c1.56,0.49,2.83,0.97,3.8,1.43c0.97,0.47,1.79,1.17,2.47,2.1s1.02,2.17,1.02,3.71C911.03,65.11,910.76,66.17,910.24,67.16z"/>
	</g>
</g>
</svg>
